<svg width="169" height="22" viewBox="0 0 169 22" fill="none" xmlns="http://www.w3.org/2000/svg">
<path d="M103.767 10.8357C102.647 10.7339 101.66 10.2002 101.163 9.17662C96.1258 8.83502 97.0827 2.00922 101.792 2.22775C102.574 0.204499 105.145 -0.306651 107.063 0.159287C108.275 0.454422 109.518 1.41518 109.511 2.75899C110.798 2.58065 112.287 3.37187 112.848 4.53232C114.242 7.40832 111.652 9.88872 108.79 9.83471C108.686 9.8322 108.573 9.76313 108.476 9.77192C108.28 9.7895 107.804 10.6021 107.769 10.8206C107.598 11.8668 108.649 12.4533 109.571 12.3993C109.828 10.7377 111.387 9.78448 113.015 9.95026C113.897 8.25354 116.111 7.83156 117.795 8.51979C117.495 7.90566 117.63 7.17975 117.873 6.5631C118.546 4.85006 120.681 4.14801 122.371 4.63405C123.064 2.48646 126.267 2.14611 127.984 3.20986C128.467 3.50876 128.693 3.932 129.01 4.38161C129.864 4.26481 130.775 4.38789 131.541 4.7948C133.601 5.88617 133.961 8.55495 132.356 10.2115C134.06 10.2466 135.875 11.6633 135.123 13.4944C135.354 13.6652 135.655 13.7431 135.874 13.9352C136.122 14.1537 136.257 14.6913 136.527 14.7239C138.287 14.9349 140.412 13.9842 140.703 12.0916C140.63 12.0187 140.257 12.4533 140.16 12.5186C139.13 13.203 137.663 12.6793 137.045 11.6922C133.09 11.6131 133.389 6.29811 137.241 6.32071C138.354 4.27863 141.513 4.33891 143.121 5.76812L144.406 5.51568C144.135 4.48836 144.728 3.35805 145.503 2.69745C147.531 0.96934 151.54 1.29839 152.383 4.13169C154.711 3.69589 156.887 5.75807 156.03 8.10534C156.376 8.48462 156.621 8.87521 156.711 9.39389L158.14 9.26328C158.806 7.80016 160.838 7.67332 162.229 7.98854C163.427 8.25982 164.4 8.96689 164.869 10.1148C164.933 10.2718 164.899 10.543 165.053 10.6196C166.899 10.5769 168.41 11.8391 168.561 13.6953C168.646 14.7478 168.086 15.8856 167.169 16.4231C166.983 16.5324 166.44 16.6919 166.373 16.756C166.288 16.8376 166.106 17.4492 165.922 17.6841C165.255 18.5431 163.764 18.8747 162.779 18.4627C162.623 18.3974 162.44 18.3585 162.415 18.1676H162.326C159.593 20.6065 155.84 21.2583 152.301 20.4621C151.231 20.221 150.246 19.8178 149.453 19.0429L149.362 19.0706C148.704 20.1657 147.318 20.4006 146.149 20.0878C145.712 19.9711 145.108 19.5591 145.187 19.0404C145.288 18.3811 146.213 19.1522 146.73 18.513C147.202 17.9265 146.907 17.198 146.309 16.8615C145.419 16.3591 143.576 16.1632 142.666 16.6505C142.123 16.9406 141.823 17.5396 141.36 17.9139C140.534 18.5808 139.214 18.9374 138.194 18.6046C137.299 20.6392 134.794 21.1855 132.763 20.9193C131.436 20.7459 129.85 19.9748 129.408 18.6298C128.962 18.6712 128.652 18.675 128.211 18.5732C126.355 18.1425 125.436 16.1782 126.296 14.469C126.433 14.1964 126.66 13.9842 126.726 13.733C127.316 13.4291 127.885 12.9204 128.587 12.9657C128.602 12.7057 128.713 12.408 128.829 12.1744C128.872 12.0865 129.311 11.4925 129.279 11.4661C128.511 11.3531 128.41 11.9923 127.995 12.408C127.328 13.0774 126.415 13.517 125.52 13.7908C126.09 16.1079 123.302 16.987 121.509 16.4294C121.226 16.3415 121.007 16.1607 120.694 16.1154C118.838 15.8479 118.478 17.3563 117.097 18.1914C115.111 19.3908 111.429 18.9676 109.694 17.4454C108.805 16.6655 108.564 15.6985 107.2 15.4875C106.813 15.4272 105.319 15.4862 105.106 15.8153C105.074 15.8643 105.053 16.3892 105.02 16.5399C104.684 18.1123 103.105 19.1145 101.532 18.8834C100.845 20.9871 97.6001 21.7042 95.9287 20.4709C95.7968 20.3742 95.4879 20.0112 95.4038 19.9911C95.2807 19.9623 95.0572 20.0866 94.9078 20.0992C91.8011 20.3704 90.3431 16.9356 92.9174 15.4837C93.5578 15.1233 94.0626 15.2137 94.7558 15.1924C95.2945 14.1449 96.613 13.7493 97.688 14.209C98.6549 14.6222 98.6762 16.3779 97.423 16.3189C97.2886 16.3126 96.9734 16.0866 97.0186 16.3503L97.1467 16.3214C97.5172 16.9946 98.4401 16.8979 98.965 16.4445C100.029 15.5239 99.8001 13.7179 98.5896 13.0611C96.888 12.1368 94.8324 13.3048 93.1422 13.5798C91.452 13.8548 89.6939 13.6426 88.1054 12.9079C88.6077 14.1688 88.0577 15.7437 86.8936 16.4257C86.7078 16.5349 86.1641 16.6944 86.0975 16.7585C86.0121 16.8401 85.83 17.4517 85.6467 17.6866C84.9786 18.5456 83.4881 18.8772 82.5036 18.4652C82.3479 18.3999 82.1645 18.361 82.1394 18.1701H82.0503C79.2148 20.707 75.1537 21.3425 71.5222 20.3415C70.6507 20.1017 69.8307 19.6734 69.1789 19.0467L69.0873 19.0743C68.7658 19.6232 68.2007 19.9911 67.5842 20.1431C66.8923 20.3127 65.5109 20.2222 65.0714 19.578C64.9295 19.3707 64.8165 19.0103 65.025 18.8106C65.2837 18.5644 65.9818 19.102 66.4553 18.5155C66.9287 17.929 66.6323 17.2005 66.0346 16.864C65.1443 16.3616 63.3021 16.1657 62.3917 16.653C61.8492 16.9431 61.5491 17.5421 61.0857 17.9164C60.2594 18.5833 58.9397 18.94 57.92 18.6071C57.0247 20.6417 54.5195 21.188 52.4889 20.9218C51.1616 20.7485 49.5756 19.9773 49.1336 18.6323C48.6087 18.6913 48.1956 18.6662 47.6895 18.5092C45.6414 17.8712 45.055 15.338 46.494 13.7858C46.0596 13.7707 45.7507 13.3738 45.5234 13.0423C44.6343 13.5936 43.6749 14.0131 42.6025 13.9729C42.5988 14.9085 42.0437 15.9132 41.2426 16.4043C41.0467 16.5249 40.4753 16.6944 40.4062 16.7597C40.3321 16.8301 40.2279 17.2219 40.1463 17.3764C39.5624 18.4703 37.9337 18.9349 36.8123 18.4652C36.6566 18.3999 36.4733 18.361 36.4482 18.1701H36.359C33.5235 20.707 29.4625 21.3425 25.8309 20.3415C24.9594 20.1017 24.1394 19.6734 23.4877 19.0467L23.396 19.0743C23.0745 19.6232 22.5095 19.9911 21.8929 20.1431C21.201 20.3127 19.8197 20.2222 19.3802 19.578C19.2383 19.3707 19.1253 19.0103 19.3337 18.8106C19.5924 18.5644 20.2906 19.102 20.764 18.5155C21.2374 17.929 20.941 17.2005 20.3433 16.864C19.453 16.3616 17.6108 16.1657 16.7004 16.653C16.1579 16.9431 15.8578 17.5421 15.3945 17.9164C14.5682 18.5833 13.2484 18.94 12.2287 18.6071C11.3259 20.658 8.78551 21.1993 6.74117 20.9155C5.75291 20.7786 4.4708 20.221 3.85172 19.4147C3.64829 19.1497 3.56416 18.886 3.3984 18.6109C1.3189 18.9601 -0.432856 17.1101 0.0920424 15.0492C0.218872 14.5531 0.566711 14.1525 0.758839 13.7368C1.34904 13.4329 1.91788 12.9242 2.61984 12.9694C3.08572 10.5518 6.25395 9.47176 8.26564 10.8168C9.1321 11.397 9.62183 12.506 9.1547 13.4982C9.74615 13.7757 10.1467 14.0696 10.4042 14.6938C12.2388 14.965 14.4087 14.0709 14.7352 12.0953C14.6624 12.0225 14.2894 12.457 14.1915 12.5223C13.1618 13.2068 11.6951 12.6831 11.0772 11.696C7.12543 11.6168 7.41676 6.30439 11.2731 6.32448C12.3857 4.28239 15.5464 4.34393 17.1525 5.77189L18.4384 5.51945C18.2174 4.76717 18.5476 3.85162 19.0135 3.24502C20.7979 0.924128 25.5031 1.04846 26.4148 4.13545C28.7417 3.69966 30.9191 5.75933 30.0615 8.10911C30.4344 8.4909 30.6178 8.90033 30.7785 9.40645L32.1736 9.26705C32.2326 8.96061 32.4913 8.72073 32.7261 8.53612C34.017 7.52261 35.9835 7.75746 37.3912 8.39922C36.3665 6.49026 38.0831 4.04503 40.2154 4.33012C40.4966 0.700578 46.2391 -0.00774768 48.0411 2.83183C50.368 2.24659 52.4186 4.04629 52.2026 6.42621C52.0884 7.67959 50.9406 8.83376 49.6359 8.71822C49.4953 9.55842 48.8209 10.2215 48.0637 10.5619C47.4911 10.8193 47.24 10.6598 46.8444 11.2853C46.4488 11.9107 46.5443 12.4219 47.1508 12.8451C47.5727 13.139 47.844 12.9732 48.3098 12.9669C48.7393 10.6937 51.5898 9.60112 53.604 10.6008C54.6714 11.1308 55.3721 12.3352 54.8447 13.4957C55.0758 13.6665 55.3771 13.7443 55.5956 13.9365C55.8305 14.1424 55.9497 14.5594 56.0628 14.6599C56.2398 14.8181 57.4529 14.7026 57.7392 14.6398C59.0301 14.3597 60.2193 13.4517 60.4252 12.0916C60.3524 12.0187 59.9794 12.4533 59.8815 12.5186C58.8518 13.203 57.3851 12.6793 56.7672 11.6922C52.8129 11.6131 53.1093 6.29811 56.9631 6.32071C58.0757 4.27863 61.2352 4.33891 62.8425 5.76812L64.1284 5.51568C63.8948 4.69433 64.2816 3.73608 64.8165 3.10436C66.6624 0.926639 71.217 1.10749 72.1048 4.13169C74.4317 3.69589 76.6091 5.75556 75.7515 8.10534C76.1244 8.48714 76.3078 8.89656 76.4685 9.40268L77.8636 9.26328C78.4237 7.97975 80.1315 7.72229 81.3872 7.89561C80.1855 5.44912 82.6015 2.74769 85.1519 3.19981C86.0171 0.578756 90.416 0.552382 91.5951 2.94235C93.5553 2.52665 95.3297 3.77124 95.4477 5.79449C95.5658 7.81774 93.5704 9.4705 91.6026 9.25449C91.3766 9.22937 90.647 8.95935 90.5956 8.96689C90.4913 8.98196 90.1272 9.25323 89.9388 9.32105C89.2343 9.57474 88.3591 9.45166 87.7877 8.95935C87.8304 9.29091 87.9949 9.69405 88.1996 9.95653C89.1502 11.1785 91.8488 11.3619 93.2791 11.2124C93.3808 11.2024 94.0325 11.0806 94.0664 11.0592C94.0953 11.0404 94.2761 10.6058 94.4092 10.4627C95.842 8.92795 99.0467 9.17914 100.718 10.1788C101.606 10.7101 102.333 11.8542 102.161 12.9029C102.633 12.7898 103.181 13.1076 103.606 12.9983C103.724 12.9682 104.109 12.7559 104.227 12.6781C104.875 12.2523 105.092 11.5905 104.985 10.8357C104.588 10.8093 104.152 10.8708 103.761 10.8357H103.767ZM109.197 3.13451C109.424 2.07704 108.529 1.0786 107.608 0.680484C105.73 -0.129569 102.528 0.312506 102.042 2.6334C100.375 2.14611 98.3987 3.63938 98.1576 5.30093C97.8587 7.36688 99.3317 8.98824 101.415 8.76971C101.376 8.84507 101.382 8.90158 101.419 8.97819C102.382 11.0366 105.617 10.916 107.16 9.58479C109.758 7.34427 108.062 3.53388 104.615 4.28993C103.474 4.53985 102.151 5.70658 102.911 6.93359C103.253 7.48744 103.953 7.73234 104.537 7.40455C105.121 7.07676 104.834 6.47268 104.411 6.57566C104.287 6.6058 104.303 7.19607 103.738 6.73642C103.081 6.20266 103.678 5.25823 104.291 4.96686C106.341 3.98977 108.278 5.78947 107.572 7.92701C106.806 10.2454 102.536 10.8959 101.798 8.23219C99.5402 8.60142 97.8926 6.60831 99.063 4.51097C99.7398 3.29903 101.072 2.73513 102.421 3.13576C102.549 0.890218 105.418 0.414234 107.161 1.0673C108.322 1.50184 108.977 2.36213 108.573 3.63561C110.284 3.11316 112.13 4.05131 112.267 5.92887C112.409 7.89058 109.979 9.48808 108.175 8.90158C107.98 9.13141 107.814 9.37129 107.601 9.5873C107.431 9.7581 106.786 10.1826 106.733 10.2893C105.988 11.7952 107.291 13.0674 108.737 13.2708C109.013 13.3098 109.299 13.2344 109.576 13.3412L109.513 12.6529C108.138 12.7044 106.774 11.8215 107.605 10.3408C107.686 10.1952 108.136 9.66391 108.136 9.61619C108.136 9.41148 107.891 9.52953 107.882 9.3964C110.667 10.1487 113.935 7.73109 112.6 4.71945C112.204 3.8265 111.153 3.12195 110.175 3.0692C109.837 3.05162 109.531 3.10562 109.199 3.13325L109.197 3.13451ZM108.318 4.01112C108.566 2.95366 108.694 2.20263 107.684 1.54328C106.012 0.453166 102.549 0.885195 102.605 3.38443C100.66 2.62461 98.6988 4.16811 98.9035 6.2328C99.0492 7.71225 100.808 8.38918 102.104 8.01869C101.847 8.66045 102.761 9.41901 103.299 9.61368C105.199 10.3007 107.608 9.02089 107.502 6.86075C107.425 5.31349 105.726 4.46952 104.385 5.12636C103.738 5.44284 103.268 6.38477 104.144 6.70251C104.308 6.5945 104.199 6.47268 104.176 6.32699C104.984 6.13861 105.538 6.74395 105.025 7.45604C104.325 8.43188 102.597 7.69215 102.384 6.57943C101.849 3.78004 107.076 2.67485 108.393 5.59355C108.865 6.64097 108.743 7.75118 108.255 8.7672C110.319 9.16783 112.532 7.554 111.927 5.32479C111.539 3.89432 109.521 3.19856 108.319 4.00987L108.318 4.01112ZM47.8138 3.26009C47.6719 2.63968 47.1872 2.2378 46.6435 1.95396C45.3727 1.28959 43.8168 1.24187 42.4983 1.80828C41.3669 2.29431 40.3711 3.33294 40.5946 4.63656C38.7851 4.34142 37.1175 5.80203 37.464 7.66704C37.7353 9.12387 39.32 9.98165 40.7202 9.6727C41.1446 10.6309 41.996 10.965 43.0094 10.8972C44.1308 10.8218 44.6996 10.1914 44.736 9.08243C42.5284 9.85104 41.2237 7.2011 42.8863 5.70281C44.3781 4.35649 47.2826 4.84755 48.1993 6.66106C48.8649 7.97724 48.6012 9.34868 47.5614 10.366C47.6129 10.4476 47.7611 10.3459 47.8239 10.3157C48.3651 10.0583 49.0306 9.55716 49.2579 8.99075C49.2918 8.90786 49.4501 8.34899 49.4475 8.30252C49.445 8.25228 49.2391 8.29749 49.3182 8.14302C50.7975 8.1179 51.512 6.19261 50.8753 4.99198C50.3441 3.99103 49.3207 3.62807 48.2245 3.76497C47.8364 3.81269 47.53 4.04754 47.1834 4.19825C47.2274 3.06166 45.8159 2.2717 44.8315 2.19258C42.8348 2.03308 40.6624 3.4309 41.4711 5.63876C41.2149 5.45791 40.9989 5.40893 40.69 5.38507C37.3473 5.13892 37.5318 9.41273 40.5619 9.08243C40.8332 9.05229 41.0379 8.91791 41.2827 8.83125C41.2978 10.0809 42.4933 10.3923 43.5418 10.1449L43.4175 10.052L43.636 9.895L43.6059 10.0834L43.7616 9.95779L43.9198 10.0218C43.0244 10.7076 41.1948 10.4388 41.1584 9.08243C39.4468 9.83722 37.3334 8.30629 38.2175 6.42998C38.721 5.36247 40.0747 4.95053 41.1572 5.32479C40.4753 2.11095 45.4066 0.877659 47.0842 3.19981C47.2487 3.42839 47.2801 3.64691 47.4019 3.88302C49.9009 2.59321 52.6421 5.37628 50.6606 7.69843C50.3492 8.06264 49.9511 8.06013 49.6937 8.42434C50.2851 8.55119 51.0298 8.05636 51.3776 7.60173C52.5555 6.06074 51.6953 3.80515 49.9247 3.18349C49.2755 2.95491 48.4367 2.98003 47.8113 3.25758L47.8138 3.26009ZM91.246 3.32163C91.3427 2.84816 90.8291 2.33073 90.4486 2.08206C89.488 1.45537 88.4558 1.37751 87.3532 1.66259C86.434 1.89996 85.496 2.5593 85.4068 3.57281C83.355 2.94738 80.9942 4.94048 81.4676 7.0956C81.6007 7.7022 81.8795 8.05888 82.5199 8.14176C82.2801 7.64945 81.9912 7.2438 81.9912 6.67111C81.9912 4.92039 84.0368 3.53137 85.658 4.19825C85.8501 1.63497 90.6182 1.19917 90.9936 3.82274C91.4997 3.71724 91.9317 3.59165 92.4603 3.64189C94.3502 3.82148 95.2543 6.02432 94.0664 7.48367C93.4323 8.26233 92.0509 8.71068 91.0991 8.40048C90.7261 8.72701 90.8266 8.76594 91.231 8.87646C92.8094 9.30724 94.9329 8.07646 95.1288 6.41491C95.4 4.11662 93.3682 2.64345 91.2448 3.32163H91.246ZM25.5948 4.41803C25.64 4.70689 25.5622 5.08742 25.5948 5.38884C25.8409 5.27455 26.0795 5.16906 26.3483 5.10626C27.9204 4.74331 29.4549 5.87613 29.2904 7.54019C29.2628 7.81649 29.1347 8.07395 29.1059 8.35024C29.5818 8.65291 29.9058 9.27333 29.9259 9.83346L30.4194 9.63754C30.5688 9.40896 30.0941 8.12418 29.6119 8.39294C29.7727 7.87049 29.9685 7.43469 29.9183 6.86703C29.75 4.99072 27.7911 4.03122 26.0984 4.57376C25.9427 1.92256 22.3764 1.45286 20.4463 2.4739C19.3161 3.07171 18.4924 4.25602 18.7649 5.56592L19.507 5.70156C18.9645 3.07548 22.1579 1.94517 24.2286 2.83937C24.8024 3.08678 25.4956 3.78632 25.5948 4.41929V4.41803ZM71.2873 4.41803C71.3325 4.70689 71.2547 5.08742 71.2873 5.38884C71.5335 5.27455 71.772 5.16906 72.0408 5.10626C73.613 4.74331 75.1475 5.87613 74.983 7.54019C74.9553 7.81649 74.8273 8.07395 74.7984 8.35024C75.2743 8.65291 75.5983 9.27333 75.6184 9.83346L76.1119 9.63754C76.2613 9.40896 75.7866 8.12418 75.3044 8.39294C75.4652 7.87049 75.6611 7.43469 75.6108 6.86703C75.4426 4.99072 73.4836 4.03122 71.7909 4.57376C71.6352 1.92256 68.0689 1.45286 66.1388 2.4739C65.0086 3.07171 64.1849 4.25602 64.4574 5.56592L65.1995 5.70156C64.657 3.07548 67.8504 1.94517 69.9211 2.83937C70.495 3.08678 71.1881 3.78632 71.2873 4.41929V4.41803ZM151.562 4.41803C151.607 4.70689 151.529 5.08742 151.562 5.38884C151.808 5.27455 152.046 5.16906 152.315 5.10626C153.887 4.74331 155.422 5.87613 155.257 7.54019C155.23 7.81649 155.102 8.07395 155.073 8.35024C155.549 8.65291 155.873 9.27333 155.893 9.83346L156.386 9.63754C156.536 9.40896 156.061 8.12418 155.579 8.39294C155.739 7.87049 155.935 7.43469 155.885 6.86703C155.717 4.99072 153.758 4.03122 152.065 4.57376C151.909 1.92256 148.343 1.45286 146.413 2.4739C145.283 3.07171 144.459 4.25602 144.732 5.56592L145.474 5.70156C144.931 3.07548 148.125 1.94517 150.195 2.83937C150.769 3.08678 151.462 3.78632 151.562 4.41929V4.41803ZM90.8844 3.93451C90.6056 2.05318 87.912 1.81958 86.6337 2.82304C86.2093 3.15711 85.6027 3.92823 85.9732 4.44943C85.3503 4.23216 84.9284 4.12792 84.2641 4.27988C82.8677 4.59762 81.7866 6.03814 82.3654 7.45479C82.7246 8.33517 83.0586 8.26107 83.7091 8.74459C84.3596 9.22811 84.6145 9.8209 84.789 10.5782L85.5651 10.6498L85.1117 9.91258C84.067 7.75118 85.1582 5.61364 87.4675 5.09496C88.7119 4.81615 90.1699 4.97691 90.9936 6.04818C91.521 6.7339 91.4934 7.56028 91.1845 8.3314C91.4407 8.27614 91.6843 8.34899 91.9605 8.32387C95.3636 8.01241 95.0672 3.5477 91.7772 3.82148C91.4545 3.84785 91.1795 4.03875 90.8844 3.93451ZM24.82 3.46983C23.5643 2.26166 20.9963 2.53293 19.9817 3.95209C19.6954 4.35147 19.4404 5.41898 19.7745 5.80956C19.8837 5.93767 20.5041 6.16875 20.4488 6.45133C20.5957 6.34583 20.72 6.08963 20.8469 5.97283C21.8125 5.08491 23.6848 5.44787 24.4546 6.42872C25.0398 7.17472 25.3273 8.18195 24.9054 9.08117C25.7869 8.9066 26.9924 8.82874 27.3717 9.84602C27.6291 10.5393 27.339 11.0379 26.7087 11.3493C26.5529 11.4259 26.4487 11.3481 26.293 11.4988C25.8121 11.9647 26.2604 12.7195 26.8342 12.8237C27.4596 12.9368 28.051 12.7974 28.5998 12.5161C28.6626 11.9019 28.7919 11.2175 29.1209 10.6887C29.5454 10.0068 30.0514 10.052 29.519 9.07992C29.401 8.8639 28.9602 8.45448 28.9301 8.34773C28.8798 8.16688 29.1109 7.56028 29.1146 7.29655C29.1347 6.00172 27.82 5.04724 26.5843 5.21553C26.131 5.27706 25.7292 5.55839 25.2809 5.63751C25.6036 4.93672 25.3725 4.00107 24.8188 3.46857L24.82 3.46983ZM70.5113 3.46983C69.2556 2.26166 66.6876 2.53293 65.6729 3.95209C65.3866 4.35147 65.1317 5.41898 65.4657 5.80956C65.575 5.93767 66.1953 6.16875 66.1401 6.45133C66.287 6.34583 66.4113 6.08963 66.5381 5.97283C67.5038 5.08491 69.3761 5.44787 70.1459 6.42872C70.731 7.17472 71.0186 8.18195 70.5967 9.08117C71.4782 8.9066 72.6837 8.82874 73.063 9.84602C73.3204 10.5393 73.0303 11.0379 72.3999 11.3493C72.2442 11.4259 72.14 11.3481 71.9843 11.4988C71.5033 11.9647 71.9516 12.7195 72.5255 12.8237C73.1508 12.9368 73.7423 12.7974 74.2911 12.5161C74.3538 11.9019 74.4832 11.2175 74.8122 10.6887C75.2366 10.0068 75.7427 10.052 75.2103 9.07992C75.0922 8.8639 74.6515 8.45448 74.6213 8.34773C74.5711 8.16688 74.8021 7.56028 74.8059 7.29655C74.826 6.00172 73.5112 5.04724 72.2756 5.21553C71.8223 5.27706 71.4204 5.55839 70.9721 5.63751C71.2949 4.93672 71.0638 4.00107 70.51 3.46857L70.5113 3.46983ZM150.787 3.46983C149.531 2.26166 146.963 2.53293 145.948 3.95209C145.662 4.35147 145.407 5.41898 145.741 5.80956C145.851 5.93767 146.471 6.16875 146.416 6.45133C146.562 6.34583 146.687 6.08963 146.814 5.97283C147.779 5.08491 149.652 5.44787 150.421 6.42872C151.007 7.17472 151.294 8.18195 150.872 9.08117C151.754 8.9066 152.959 8.82874 153.338 9.84602C153.596 10.5393 153.306 11.0379 152.675 11.3493C152.52 11.4259 152.415 11.3481 152.26 11.4988C151.779 11.9647 152.227 12.7195 152.801 12.8237C153.426 12.9368 154.018 12.7974 154.567 12.5161C154.629 11.9019 154.759 11.2175 155.088 10.6887C155.512 10.0068 156.018 10.052 155.486 9.07992C155.368 8.8639 154.927 8.45448 154.897 8.34773C154.847 8.16688 155.078 7.56028 155.081 7.29655C155.102 6.00172 153.787 5.04724 152.551 5.21553C152.098 5.27706 151.696 5.55839 151.248 5.63751C151.57 4.93672 151.339 4.00107 150.786 3.46857L150.787 3.46983ZM128.716 11.2124H129.626C129.683 11.2124 130.271 10.695 130.557 10.5744C131.251 10.2818 131.72 10.4375 132.263 9.83471C133.896 8.02622 132.844 5.00579 130.379 4.7634C130.163 4.74205 129.937 4.77596 129.721 4.76215L129.785 4.63781L128.815 4.75587C128.491 4.07643 128.205 3.70091 127.527 3.35178C126.125 2.62838 123.842 2.813 122.914 4.20327C122.731 4.47706 122.666 4.81489 122.47 5.07612C122.343 5.10752 122.413 4.98946 122.292 4.94048C120.298 4.15178 117.604 5.91129 117.988 8.17065C118.1 8.82497 118.541 8.85763 118.959 9.26956C119.077 9.38636 119.309 9.67396 119.416 9.81462C119.499 9.92388 119.668 10.3057 119.692 10.322C119.812 10.4074 120.653 10.4752 120.874 10.5518C121.057 10.6159 121.42 10.9663 121.645 11.0969C122.416 11.5465 123.186 11.7361 124.076 11.5591C124.421 11.49 124.998 11.2978 125.14 10.9613C121.878 11.4636 121.281 7.33422 124.522 6.61836C126.618 6.15619 129.806 7.54773 129.192 10.0871C129.137 10.317 128.967 10.317 128.904 10.5204C130.995 10.6586 133.047 8.5336 131.843 6.49403C131.161 5.3386 129.762 5.2105 128.593 5.60988C128.396 5.6777 128.246 5.75179 128.088 5.88869C128.295 4.24221 126.906 3.58035 125.466 3.64942C124.026 3.7185 122.838 4.64912 123.129 6.13861L122.661 5.82464C120.642 4.82997 118.052 6.34332 119.003 8.72199C119.205 9.22811 119.647 9.57977 120.179 9.67647C120.006 9.88872 119.632 9.6413 119.447 9.53079C118.381 8.89153 118.369 7.30785 119.061 6.36844C119.681 5.52573 120.811 5.19292 121.828 5.33986C122.181 5.3901 122.54 5.60988 122.878 5.7003C122.908 2.85695 128.349 2.63215 128.276 5.57471C128.584 5.34111 128.992 5.36372 129.359 5.30972C129.442 5.29716 129.523 5.21804 129.629 5.20297C130.633 5.06105 131.811 5.79952 132.179 6.7226C133.082 8.99075 130.954 10.8244 128.781 10.7126L128.716 11.2099V11.2124ZM16.8712 5.88994C16.5786 5.99921 16.4317 5.59355 16.163 5.43908C15.8942 5.2846 15.3191 5.1452 15.0039 5.09245C13.7783 4.88774 11.9098 5.28083 11.5306 6.63343C9.64946 6.47896 8.02328 8.0099 8.71142 9.93016C8.98643 10.6975 9.87173 11.3657 10.6905 11.4033C10.8926 11.4121 11.1111 11.3054 11.2706 11.3807C11.4477 11.4649 11.4891 11.7437 11.6298 11.9032C12.0165 12.3402 12.9709 12.668 13.5372 12.4847C13.7733 12.408 14.6247 11.8416 14.6611 11.608C14.6749 11.5214 14.5205 11.1496 14.4577 11.1496C13.3388 12.2498 11.857 11.0353 12.4309 9.62749C13.2158 7.7022 16.3865 8.37411 17.3409 9.90002C18.5828 11.8856 17.2492 14.469 15.4886 15.6194C14.0533 16.5588 12.3857 16.9644 10.7018 16.4646C9.61556 18.3547 5.98773 18.1839 5.40632 15.9811C5.11123 14.8621 5.9036 13.7481 7.07897 13.7355C7.73069 13.728 8.44018 14.2115 8.33596 14.9299C8.27066 15.3757 7.32509 15.7148 7.14803 15.122C7.35397 14.8583 7.35648 15.2727 7.55489 15.2564C8.17899 15.0831 8.13755 14.2781 7.52601 14.1186C5.93499 13.7054 5.08862 15.5214 6.11833 16.6492C7.24347 17.8812 9.60676 17.679 10.5159 16.2888C10.7319 16.2147 11.7051 16.4533 12.0153 16.4684C15.0805 16.6216 18.8038 13.2884 17.096 10.1424C16.1881 8.47081 12.6406 8.19954 12.6055 10.3032C12.5879 11.3619 14.0433 11.6306 14.3648 10.6448C15.122 11.1295 15.1898 12.1506 14.8784 12.9418C14.4238 14.0935 12.8277 14.9399 11.6335 15.0266C11.2078 15.058 10.8286 14.96 10.4104 14.965L10.3477 15.5289C12.0931 15.8768 13.9566 15.4837 15.3066 14.3095C16.3413 13.4102 16.9779 12.0576 16.4016 10.7101C16.0273 9.83346 14.6247 9.23691 13.7909 9.72922C13.3087 10.0143 13.4167 10.2743 13.6113 10.7076C12.9935 10.6083 13.1781 9.75936 13.659 9.53455C15.0567 8.88023 16.6728 9.91635 16.8122 11.4297C17.0671 14.1939 13.929 15.8731 11.5167 15.8366C11.1576 15.8316 10.708 15.6834 10.3301 15.7274C10.1982 15.7663 10.0224 16.133 9.9094 16.2486C9.14089 17.036 7.20705 17.1604 6.55532 16.1519C6.17735 15.5666 6.40463 14.4363 7.24221 14.5255C7.33011 14.5343 7.43434 14.577 7.33765 14.6523C6.37952 14.8143 6.37952 15.868 7.11789 16.4056C7.72316 16.8476 9.12833 16.7308 9.65951 16.1858C10.8889 14.9261 9.549 13.4203 8.09109 13.8373C8.52181 13.0699 8.51804 12.4721 7.8412 11.8655C6.33557 10.5154 3.34315 11.8868 3.57169 13.9628C1.80236 13.4567 0.480065 15.598 1.6906 16.9983C2.25191 17.6476 3.43984 17.8461 4.19956 17.4693C4.51852 19.4725 6.79642 19.8957 8.49795 19.7224C9.92572 19.5767 11.0433 18.8081 11.6988 17.5396C12.5377 17.9315 13.8574 17.6702 14.6146 17.183C15.1822 16.8188 15.564 16.1996 16.173 15.8567C17.7552 14.9676 22.743 15.3079 22.021 17.9968C21.7271 19.0894 20.5505 19.2426 19.5773 19.0969C19.571 19.3758 19.939 19.6219 20.1776 19.7186C20.9925 20.0489 22.4442 19.8869 22.9804 19.1422L23.4362 18.2819C23.7539 19.0882 24.8451 19.6935 25.6513 19.9547C29.2264 21.1127 34.7429 20.3051 36.9253 16.9619C37.8521 15.5415 38.0279 13.7644 36.5185 12.6831C35.5754 12.0074 33.9404 11.9396 33.1631 12.8966C32.8128 13.3286 32.794 14.2366 33.2988 14.5167C33.4457 14.5983 33.683 14.5707 33.7609 14.7114C32.3946 15.814 29.9246 14.7013 29.6471 13.0247C29.3331 11.1245 30.8224 9.85983 32.6546 10.0834C32.9547 9.26454 33.909 8.78604 34.7416 8.71069C36.467 8.5537 38.5076 9.54586 38.2175 11.5201C39.1731 10.9851 40.4791 11.4586 41.1647 12.2423C42.3451 13.5936 41.5665 16.0514 39.5975 15.9032C39.7332 17.4027 38.1949 18.1349 36.9379 17.5371L36.6478 17.9692C36.8362 17.9704 37.0723 18.2354 37.1941 18.2706C37.2995 18.3007 37.7378 18.3158 37.8709 18.3108C38.7788 18.2756 40.189 17.5409 40.037 16.4684C40.6235 16.5676 41.4033 15.9572 41.7336 15.5001C43.2743 13.3625 41.3945 10.4313 38.8454 10.9587C38.8027 9.40896 37.6323 8.5763 36.2234 8.28368C35.421 8.11665 34.6863 8.0865 33.8864 8.29749C33.305 8.45072 32.4788 8.91414 32.4411 9.57851C31.3323 9.46297 30.1029 9.81839 29.4713 10.7791C28.0661 12.9167 29.6898 15.3983 32.043 15.7098C33.0037 15.8366 34.5306 15.6671 34.6399 14.4652L34.5143 14.6523H34.326L34.3197 14.2203C32.7827 13.9453 33.6391 12.7697 34.7981 12.7132C36.3992 12.6341 37.1727 14.2605 36.7395 15.652C35.814 18.6235 31.6085 19.7965 28.8346 19.5993C27.3641 19.4938 24.1708 18.7139 24.2813 16.8112C24.3102 16.3239 24.6003 16.1054 24.5287 15.5666C24.476 15.1698 24.1356 14.8319 23.7677 14.6975C22.2119 14.1274 20.7552 15.6056 19.2609 14.2479C17.7239 12.8514 18.471 10.2228 20.6095 10.1424C21.0415 10.1261 21.4672 10.2102 21.923 10.1386C22.8749 9.98793 23.6195 9.44036 23.828 8.46955C24.0666 7.35809 23.0972 6.31192 21.9607 6.6686C21.7083 6.74772 21.2211 7.02025 21.3969 7.32669L21.2726 7.26264L21.2098 7.63815C20.98 7.22873 21.2299 6.78037 21.6279 6.58445C22.9829 5.91757 24.3881 7.14961 24.0038 8.57882C23.7941 9.35998 23.2667 9.88872 22.507 10.1537C21.6644 10.4488 20.9988 10.268 20.1901 10.4087C18.8151 10.6473 18.2726 12.3478 18.9482 13.4931C20.3961 15.9472 22.6702 13.4743 24.3165 14.7754C25.2934 15.5478 24.2524 16.4596 24.5689 17.3412C24.9544 18.4137 26.514 18.9789 27.5349 19.2037C29.9472 19.7349 33.0225 19.269 34.9852 17.7167C36.1443 16.7999 37.3033 14.9349 36.2384 13.527C35.6658 12.771 33.9656 12.5663 33.6993 13.6765C33.9028 14.258 34.4992 13.6037 34.8596 14.1512C35.1736 14.6297 35.1824 15.5754 35.0053 16.1067C34.1338 18.7252 29.5027 19.1962 27.2386 18.4979C26.7626 18.3509 25.5785 17.8172 25.301 17.4254C24.825 16.7547 25.2005 16.5538 25.3148 15.9095C25.6187 14.1902 24.0126 13.738 22.6237 13.836C21.6342 13.9063 20.9863 14.3459 20.0219 13.7368C19.3124 13.2884 18.967 12.4909 19.453 11.7374L19.3287 11.6445C19.5447 11.6947 19.5208 11.5214 19.6439 11.4272C20.8594 10.5066 22.4027 11.3795 23.7853 10.1725C26.0858 8.16311 23.9686 4.93044 21.3667 6.00674C20.8594 6.21648 20.5078 6.79168 20.5882 7.35055C20.6409 7.71602 21.3266 8.31633 21.6179 7.9471C21.8339 7.67206 21.6418 7.64945 21.525 7.47991C21.3454 7.21868 21.8791 7.45479 21.9482 7.52637C22.2445 7.83156 21.7033 8.40801 21.3065 8.39169C20.99 8.37787 20.3634 7.84537 20.283 7.52889C20.1562 7.02778 20.4752 6.61083 19.939 6.23908C19.129 5.6777 17.71 5.78821 16.9001 6.30816C16.7594 6.39858 16.6515 6.45384 16.6602 6.63343C16.2496 6.31192 15.9708 6.03814 15.4397 5.91004C14.0169 5.56969 12.2765 5.99167 11.7955 7.50879C10.8022 7.03909 9.48496 7.78635 9.35562 8.86139C9.19363 10.2077 10.2384 10.9072 11.4816 10.7641C11.6737 10.9926 10.762 10.9412 10.6628 10.9236C8.83449 10.5908 8.60343 8.20205 10.207 7.39451C10.7018 7.14584 11.1626 7.19984 11.6925 7.20235C12.4334 5.47675 15.2978 5.07738 16.5975 6.37974C16.6841 6.31318 16.9541 5.96655 16.88 5.87989L16.8712 5.88994ZM62.5625 5.88994C62.2699 5.99921 62.123 5.59355 61.8542 5.43908C61.5855 5.2846 61.0104 5.1452 60.6952 5.09245C59.4696 4.88774 57.601 5.28083 57.2218 6.63343C55.3407 6.47896 53.7145 8.0099 54.4027 9.93016C54.6777 10.6975 55.563 11.3657 56.3817 11.4033C56.5839 11.4121 56.8024 11.3054 56.9619 11.3807C57.1389 11.4649 57.1804 11.7437 57.321 11.9032C57.7078 12.3402 58.6621 12.668 59.2285 12.4847C59.4646 12.408 60.3159 11.8416 60.3524 11.608C60.3662 11.5214 60.2117 11.1496 60.1489 11.1496C59.0301 12.2498 57.5483 11.0353 58.1222 9.62749C58.907 7.7022 62.0777 8.37411 63.0321 9.90002C64.274 11.8856 62.9404 14.469 61.1799 15.6194C59.7446 16.5588 58.077 16.9644 56.393 16.4646C55.3068 18.3547 51.679 18.1839 51.0976 15.9811C50.8025 14.8621 51.5949 13.7481 52.7702 13.7355C53.422 13.728 54.1314 14.2115 54.0272 14.9299C53.9619 15.3757 53.0163 15.7148 52.8393 15.122C53.0452 14.8583 53.0477 15.2727 53.2461 15.2564C53.8703 15.0831 53.8288 14.2781 53.2173 14.1186C51.6262 13.7054 50.7799 15.5214 51.8096 16.6492C52.9347 17.8812 55.298 17.679 56.2072 16.2888C56.4232 16.2147 57.3964 16.4533 57.7065 16.4684C60.7718 16.6216 64.495 13.2884 62.7872 10.1424C61.8793 8.47081 58.3319 8.19954 58.2967 10.3032C58.2791 11.3619 59.7345 11.6306 60.056 10.6448C60.8132 11.1295 60.881 12.1506 60.5696 12.9418C60.115 14.0935 58.519 14.9399 57.3248 15.0266C56.8991 15.058 56.5199 14.96 56.1017 14.965L56.0389 15.5289C57.7844 15.8768 59.6479 15.4837 60.9978 14.3095C62.0325 13.4102 62.6692 12.0576 62.0928 10.7101C61.7186 9.83346 60.316 9.23691 59.4821 9.72922C58.9999 10.0143 59.1079 10.2743 59.3026 10.7076C58.6847 10.6083 58.8693 9.75936 59.3503 9.53455C60.7479 8.88023 62.3641 9.91635 62.5034 11.4297C62.7584 14.1939 59.6203 15.8731 57.208 15.8366C56.8489 15.8316 56.3993 15.6834 56.0213 15.7274C55.8895 15.7663 55.7137 16.133 55.6007 16.2486C54.8321 17.036 52.8983 17.1604 52.2466 16.1519C51.8686 15.5666 52.0959 14.4363 52.9335 14.5255C53.0214 14.5343 53.1256 14.577 53.0289 14.6523C52.0708 14.8143 52.0708 15.868 52.8092 16.4056C53.4144 16.8476 54.8196 16.7308 55.3508 16.1858C56.5801 14.9261 55.2403 13.4203 53.7823 13.8373C54.2131 13.0699 54.2093 12.4721 53.5325 11.8655C52.0268 10.5154 49.0344 11.8868 49.263 13.9628C47.4936 13.4567 46.1713 15.598 47.3819 16.9983C47.9432 17.6476 49.1311 17.8461 49.8908 17.4693C50.2098 19.4725 52.4877 19.8957 54.1892 19.7224C55.617 19.5767 56.7346 18.8081 57.3901 17.5396C58.2289 17.9315 59.5487 17.6702 60.3059 17.183C60.8735 16.8188 61.2552 16.1996 61.8643 15.8567C63.4465 14.9676 68.4343 15.3079 67.7122 17.9968C67.4184 19.0894 66.2418 19.2426 65.2686 19.0969C65.2623 19.3758 65.6302 19.6219 65.8688 19.7186C66.6838 20.0489 68.1354 19.8869 68.6716 19.1422L69.1275 18.2819C69.4452 19.0882 70.5364 19.6935 71.3426 19.9547C74.9177 21.1127 80.4341 20.3051 82.6166 16.9619C83.5433 15.5415 83.7191 13.7644 82.2097 12.6831C81.2667 12.0074 79.6317 11.9396 78.8544 12.8966C78.5041 13.3286 78.4852 14.2366 78.99 14.5167C79.1369 14.5983 79.3743 14.5707 79.4521 14.7114C78.0859 15.814 75.6159 14.7013 75.3383 13.0247C75.0244 11.1245 76.5137 9.85983 78.3458 10.0834C78.646 9.26454 79.6003 8.78604 80.4329 8.71069C82.1583 8.5537 84.1988 9.54586 83.9088 11.5201C84.8644 10.9851 86.1703 11.4586 86.856 12.2423C88.0364 13.5936 87.2578 16.0514 85.2888 15.9032C85.4244 17.4027 83.8861 18.1349 82.6292 17.5371L82.3391 17.9692C82.5274 17.9704 82.7635 18.2354 82.8853 18.2706C82.9908 18.3007 83.4291 18.3158 83.5622 18.3108C84.4701 18.2756 85.8803 17.5409 85.7283 16.4684C86.3147 16.5676 87.0946 15.9572 87.4248 15.5001C88.9656 13.3625 87.0858 10.4313 84.5366 10.9587C84.4939 9.40896 83.3236 8.5763 81.9146 8.28368C81.1122 8.11665 80.3776 8.0865 79.5777 8.29749C78.9963 8.45072 78.17 8.91414 78.1324 9.57851C77.0235 9.46297 75.7942 9.81839 75.1625 10.7791C73.7574 12.9167 75.381 15.3983 77.7343 15.7098C78.6949 15.8366 80.2219 15.6671 80.3311 14.4652L80.2056 14.6523H80.0172L80.0109 14.2203C78.4739 13.9453 79.3303 12.7697 80.4894 12.7132C82.0352 12.6379 82.8414 14.1864 82.4621 15.5566C81.6208 18.5896 77.3086 19.7965 74.5271 19.5981C73.0567 19.4926 69.8633 18.7126 69.9738 16.81C70.0027 16.3227 70.2928 16.1041 70.2212 15.5654C70.1685 15.1685 69.8282 14.8307 69.4602 14.6963C67.9044 14.1261 66.4477 15.6043 64.9534 14.2467C63.4164 12.8501 64.1635 10.2215 66.3021 10.1412C66.734 10.1248 67.1597 10.209 67.6156 10.1374C68.5674 9.98668 69.3121 9.43911 69.5205 8.4683C69.7591 7.35683 68.7897 6.31067 67.6532 6.66734C67.4008 6.74646 66.9136 7.01899 67.0894 7.32543L66.9651 7.26138L66.9023 7.63689C66.6725 7.22747 66.9224 6.77912 67.3205 6.5832C68.6754 5.91632 70.0806 7.14835 69.6963 8.57756C69.4866 9.35873 68.9592 9.88746 68.1995 10.1525C67.3569 10.4476 66.6913 10.2667 65.8826 10.4074C64.5076 10.646 63.9651 12.3465 64.6407 13.4919C66.0886 15.9459 68.3627 13.473 70.009 14.7742C70.986 15.5465 69.945 16.4583 70.2614 17.3399C70.6469 18.4125 72.2065 18.9776 73.2274 19.2024C75.6397 19.7337 78.715 19.2677 80.6777 17.7155C81.8368 16.7987 82.9958 14.9337 81.931 13.5258C81.3583 12.7697 79.6581 12.565 79.3919 13.6752C79.5953 14.2567 80.1918 13.6024 80.5522 14.15C80.8661 14.6285 80.8749 15.5742 80.6978 16.1054C79.8263 18.7239 75.1952 19.1949 72.9311 18.4966C72.4552 18.3497 71.271 17.8159 70.9935 17.4241C70.5176 16.7534 70.893 16.5525 71.0073 15.9082C71.3112 14.1889 69.7051 13.7368 68.3163 13.8347C67.3267 13.9051 66.6788 14.3446 65.7144 13.7355C65.0049 13.2872 64.6595 12.4897 65.1455 11.7361L65.0212 11.6432C65.2372 11.6934 65.2133 11.5201 65.3364 11.4259C66.5519 10.5054 68.0952 11.3782 69.4778 10.1713C71.7783 8.16186 69.6612 4.92918 67.0593 6.00548C66.5519 6.21522 66.2003 6.79042 66.2807 7.34929C66.3335 7.71476 67.0191 8.31508 67.3104 7.94584C67.5264 7.6708 67.3343 7.6482 67.2175 7.47865C67.0379 7.21742 67.5716 7.45353 67.6407 7.52512C67.937 7.8303 67.3958 8.40676 66.999 8.39043C66.6825 8.37662 66.0559 7.84412 65.9756 7.52763C65.8487 7.02653 66.1677 6.60957 65.6315 6.23782C64.8215 5.67644 63.4026 5.78696 62.5926 6.3069C62.452 6.39732 62.344 6.45258 62.3528 6.63218C61.9421 6.31067 61.6634 6.03688 61.1322 5.90878C59.7094 5.56843 57.969 5.99041 57.488 7.50754C56.4947 7.03783 55.1775 7.78509 55.0481 8.86014C54.8861 10.2065 55.9309 10.906 57.1741 10.7628C57.3662 10.9914 56.4546 10.9399 56.3554 10.9223C54.527 10.5895 54.2959 8.20079 55.8995 7.39325C56.3943 7.14458 56.8551 7.19859 57.3851 7.2011C58.1259 5.4755 60.9903 5.07612 62.29 6.37849C62.3766 6.31192 62.6466 5.9653 62.5725 5.87864L62.5625 5.88994ZM142.837 5.88994C142.544 5.99921 142.397 5.59355 142.128 5.43908C141.86 5.2846 141.285 5.1452 140.969 5.09245C139.744 4.88774 137.875 5.28083 137.496 6.63343C135.615 6.47896 133.989 8.0099 134.677 9.93016C134.952 10.6975 135.837 11.3657 136.656 11.4033C136.858 11.4121 137.077 11.3054 137.236 11.3807C137.413 11.4649 137.455 11.7437 137.595 11.9032C137.982 12.3402 138.936 12.668 139.503 12.4847C139.739 12.408 140.59 11.8416 140.627 11.608C140.64 11.5214 140.486 11.1496 140.423 11.1496C139.304 12.2498 137.823 11.0353 138.396 9.62749C139.181 7.7022 142.352 8.37411 143.306 9.90002C144.548 11.8856 143.215 14.469 141.454 15.6194C140.019 16.5588 138.351 16.9644 136.667 16.4646C135.581 18.3547 131.953 18.1839 131.372 15.9811C131.077 14.8621 131.869 13.7481 133.044 13.7355C133.696 13.728 134.406 14.2115 134.301 14.9299C134.236 15.3757 133.291 15.7148 133.114 15.122C133.32 14.8583 133.322 15.2727 133.52 15.2564C134.145 15.0831 134.103 14.2781 133.492 14.1186C131.901 13.7054 131.054 15.5214 132.084 16.6492C133.209 17.8812 135.572 17.679 136.481 16.2888C136.697 16.2147 137.671 16.4533 137.981 16.4684C141.046 16.6216 144.769 13.2884 143.062 10.1424C142.154 8.47081 138.606 8.19954 138.571 10.3032C138.553 11.3619 140.009 11.6306 140.33 10.6448C141.087 11.1295 141.155 12.1506 140.844 12.9418C140.389 14.0935 138.793 14.9399 137.599 15.0266C137.173 15.058 136.794 14.96 136.376 14.965L136.313 15.5289C138.059 15.8768 139.922 15.4837 141.272 14.3095C142.307 13.4102 142.943 12.0576 142.367 10.7101C141.993 9.83346 140.59 9.23691 139.756 9.72922C139.274 10.0143 139.382 10.2743 139.577 10.7076C138.959 10.6083 139.144 9.75936 139.625 9.53455C141.022 8.88023 142.638 9.91635 142.778 11.4297C143.033 14.1939 139.895 15.8731 137.482 15.8366C137.123 15.8316 136.674 15.6834 136.296 15.7274C136.164 15.7663 135.988 16.133 135.875 16.2486C135.106 17.036 133.173 17.1604 132.521 16.1519C132.143 15.5666 132.37 14.4363 133.208 14.5255C133.296 14.5343 133.4 14.577 133.303 14.6523C132.345 14.8143 132.345 15.868 133.083 16.4056C133.689 16.8476 135.094 16.7308 135.625 16.1858C136.854 14.9261 135.515 13.4203 134.057 13.8373C134.487 13.0699 134.484 12.4721 133.807 11.8655C132.301 10.5154 129.309 11.8868 129.537 13.9628C127.768 13.4567 126.446 15.598 127.656 16.9983C128.217 17.6476 129.405 17.8461 130.165 17.4693C130.484 19.4725 132.762 19.8957 134.463 19.7224C135.891 19.5767 137.009 18.8081 137.664 17.5396C138.503 17.9315 139.823 17.6702 140.58 17.183C141.148 16.8188 141.53 16.1996 142.139 15.8567C143.721 14.9676 148.709 15.3079 147.987 17.9968C147.693 19.0894 146.516 19.2426 145.543 19.0969C145.537 19.3758 145.905 19.6219 146.143 19.7186C146.958 20.0489 148.41 19.8869 148.946 19.1422L149.402 18.2819C149.719 19.0882 150.811 19.6935 151.617 19.9547C155.192 21.1127 160.708 20.3051 162.891 16.9619C163.818 15.5415 163.993 13.7644 162.484 12.6831C161.541 12.0074 159.906 11.9396 159.129 12.8966C158.778 13.3286 158.759 14.2366 159.264 14.5167C159.411 14.5983 159.649 14.5707 159.726 14.7114C158.36 15.814 155.89 14.7013 155.613 13.0247C155.299 11.1245 156.788 9.85983 158.62 10.0834C158.92 9.26454 159.875 8.78604 160.707 8.71069C162.433 8.5537 164.473 9.54586 164.183 11.5201C165.139 10.9851 166.445 11.4586 167.13 12.2423C168.311 13.5936 167.532 16.0514 165.563 15.9032C165.699 17.4027 164.16 18.1349 162.903 17.5371L162.613 17.9692C162.802 17.9704 163.038 18.2354 163.16 18.2706C163.265 18.3007 163.703 18.3158 163.836 18.3108C164.744 18.2756 166.155 17.5409 166.003 16.4684C166.589 16.5676 167.369 15.9572 167.699 15.5001C169.24 13.3625 167.36 10.4313 164.811 10.9587C164.768 9.40896 163.598 8.5763 162.189 8.28368C161.386 8.11665 160.652 8.0865 159.852 8.29749C159.271 8.45072 158.444 8.91414 158.407 9.57851C157.298 9.46297 156.068 9.81839 155.437 10.7791C154.032 12.9167 155.655 15.3983 158.009 15.7098C158.969 15.8366 160.496 15.6671 160.605 14.4652L160.48 14.6523H160.291L160.285 14.2203C158.748 13.9453 159.605 12.7697 160.764 12.7132C162.309 12.6379 163.116 14.1864 162.736 15.5566C161.895 18.5896 157.583 19.7965 154.801 19.5981C153.331 19.4926 150.138 18.7126 150.248 16.81C150.277 16.3227 150.567 16.1041 150.495 15.5654C150.443 15.1685 150.102 14.8307 149.735 14.6963C148.179 14.1261 146.722 15.6043 145.228 14.2467C143.691 12.8501 144.438 10.2215 146.576 10.1412C147.008 10.1248 147.434 10.209 147.89 10.1374C148.842 9.98668 149.586 9.43911 149.795 8.4683C150.033 7.35683 149.064 6.31067 147.928 6.66734C147.675 6.74646 147.188 7.01899 147.364 7.32543L147.239 7.26138L147.177 7.63689C146.947 7.22747 147.197 6.77912 147.595 6.5832C148.95 5.91632 150.355 7.14835 149.971 8.57756C149.761 9.35873 149.233 9.88746 148.474 10.1525C147.631 10.4476 146.966 10.2667 146.157 10.4074C144.782 10.646 144.239 12.3465 144.915 13.4919C146.363 15.9459 148.637 13.473 150.283 14.7742C151.26 15.5465 150.219 16.4583 150.536 17.3399C150.921 18.4125 152.481 18.9776 153.502 19.2024C155.914 19.7337 158.989 19.2677 160.952 17.7155C162.111 16.7987 163.27 14.9337 162.205 13.5258C161.633 12.7697 159.932 12.565 159.666 13.6752C159.87 14.2567 160.466 13.6024 160.826 14.15C161.14 14.6285 161.149 15.5742 160.972 16.1054C160.101 18.7239 155.469 19.1949 153.205 18.4966C152.729 18.3497 151.545 17.8159 151.268 17.4241C150.792 16.7534 151.167 16.5525 151.282 15.9082C151.585 14.1889 149.979 13.7368 148.591 13.8347C147.601 13.9051 146.953 14.3446 145.989 13.7355C145.279 13.2872 144.934 12.4897 145.42 11.7361L145.295 11.6432C145.511 11.6934 145.488 11.5201 145.611 11.4259C146.826 10.5054 148.37 11.3782 149.752 10.1713C152.053 8.16186 149.935 4.92918 147.334 6.00548C146.826 6.21522 146.475 6.79042 146.555 7.34929C146.608 7.71476 147.293 8.31508 147.585 7.94584C147.801 7.6708 147.609 7.6482 147.492 7.47865C147.312 7.21742 147.846 7.45353 147.915 7.52512C148.211 7.8303 147.67 8.40676 147.273 8.39043C146.957 8.37662 146.33 7.84412 146.25 7.52763C146.123 7.02653 146.442 6.60957 145.906 6.23782C145.096 5.67644 143.677 5.78696 142.867 6.3069C142.726 6.39732 142.618 6.45258 142.627 6.63218C142.216 6.31067 141.938 6.03688 141.406 5.90878C139.984 5.56843 138.243 5.99041 137.762 7.50754C136.769 7.03783 135.452 7.78509 135.322 8.86014C135.16 10.2065 136.205 10.906 137.448 10.7628C137.64 10.9914 136.729 10.9399 136.63 10.9223C134.801 10.5895 134.57 8.20079 136.174 7.39325C136.669 7.14458 137.129 7.19859 137.659 7.2011C138.4 5.4755 141.265 5.07612 142.564 6.37849C142.651 6.31192 142.921 5.9653 142.847 5.87864L142.837 5.88994ZM47.1458 10.42C47.2538 10.2994 47.461 10.1788 47.5953 10.0231C49.3747 7.95589 47.5313 5.11757 44.9595 5.26451C43.5958 5.34237 42.2911 6.14991 42.4782 7.67583C42.6653 9.20174 45.2722 9.43534 45.2948 7.74741C44.7762 7.2124 44.402 7.44097 44.4861 8.13925C43.4715 8.61147 42.7746 7.73611 43.209 6.77284C43.8156 5.42903 46.0106 5.53327 46.9059 6.51538C48.4028 8.15683 47.1332 9.9289 45.8712 11.1823C45.4957 11.5553 45.0248 11.8102 44.7134 12.0928C44.0667 12.6793 43.3308 12.9217 42.4807 13.0925L42.6138 13.6451C43.4175 13.6627 44.2124 13.4291 44.9068 13.0385C45.1077 12.9255 45.5774 12.6881 45.556 12.4646L45.9315 13.1226C46.0332 13.2445 46.6548 13.5547 46.7753 13.5233C46.8406 13.507 46.8469 13.3864 46.8909 13.3588C46.921 13.3387 47.3253 13.2872 47.2199 13.1528C46.4137 12.9004 46.1085 12.1343 46.3295 11.3569C46.6071 11.0517 46.872 10.7277 47.147 10.42H47.1458ZM87.9999 8.81493C88.3352 9.14146 89.1841 9.15276 89.6173 9.0548C92.0962 8.49216 91.2259 5.32353 88.84 5.28837C86.6513 5.25446 84.5542 6.58696 85.1143 9.03345C85.4721 10.597 86.4139 10.6184 87.3583 11.5553C88.0075 12.1996 87.7664 12.4281 88.7823 12.825C89.7982 13.2219 91.0803 13.4203 92.2217 13.3437C94.2924 13.203 96.2878 11.8693 98.3723 12.5876C100.331 13.2621 100.641 16.1154 98.7591 16.987C97.6453 17.5032 95.896 16.5261 97.1279 15.3782C96.5867 14.6059 95.3736 15.49 95.3874 16.2863C94.0488 15.6395 92.3084 16.6844 92.9689 18.2291C93.3331 19.0831 94.4205 19.1761 95.2305 19.102C95.5256 19.0743 95.9073 19.0115 96.048 18.729C96.2401 19.1836 96.2627 19.4787 96.7549 19.7123C97.6402 20.1331 99.014 19.9685 99.8026 19.4059C100.183 19.1346 100.7 18.4853 100.724 18.0068C100.734 17.7896 100.438 18.0194 100.409 17.8511C100.77 17.7506 101.097 17.9465 101.441 17.9779C102.624 18.0847 103.803 17.2847 103.923 16.0652C104.095 14.2982 102.236 13.4442 100.722 13.8423C102.118 11.0981 98.3259 9.95779 96.279 10.5694C95.6135 10.7678 94.7608 11.2916 94.9203 12.0928C94.7546 12.3515 91.781 12.4231 91.3339 12.4018C88.9543 12.2887 85.4596 11.0881 85.7183 8.11037C85.9342 5.62997 90.0681 5.06733 90.3997 7.20235C90.5277 8.0212 89.5407 8.84004 88.7961 8.48839C88.4093 8.30629 88.7998 7.55275 88.2938 7.6708C87.7877 7.78886 87.7011 8.52732 87.9974 8.81618L87.9999 8.81493ZM46.6611 6.53798C45.8398 5.7631 43.7904 5.70784 43.3585 6.9248C43.1764 7.43721 43.3359 8.17316 44.0102 8.07897C44.5326 8.00487 44.0918 7.30408 44.7096 7.20863C45.8448 7.03406 45.8649 8.71571 44.8628 8.95935C44.9407 9.36752 45.3024 9.71163 45.3589 10.1223C45.4292 10.6284 45.2609 11.058 45.114 11.5251C46.1023 10.6975 47.5865 9.30096 47.358 7.87677C47.294 7.47991 46.9536 6.81554 46.6598 6.53798H46.6611ZM88.9242 8.3314C90.8015 8.31131 90.4687 6.27173 88.7609 6.08461C86.6714 5.85478 85.2587 7.89184 86.2771 9.75182C87.2955 11.6105 89.753 12.1544 91.7144 12.2171C92.6977 12.2485 93.6721 12.1305 94.6403 11.9986C94.899 10.4802 96.667 10.1035 97.9818 10.2391C99.0931 10.3534 100.574 10.8093 101.068 11.9019C101.353 12.5311 101.238 12.8765 101.106 13.5233C101.168 13.6124 102.047 13.5974 102.265 13.6451C104.271 14.0847 104.807 16.5211 103.14 17.7243C102.437 18.2316 101.676 18.1977 100.85 18.101C100.741 19.4436 99.0178 20.1883 97.816 20.1431C96.9395 20.1105 96.3041 19.8731 95.9236 19.0455C94.6302 19.6985 92.4415 19.1522 92.6273 17.3801C92.7579 16.1343 94.2058 15.7261 95.2606 16.0313C95.4188 15.2878 96.0392 14.8483 96.8014 14.9085C97.1945 14.9399 97.4933 15.0555 97.4657 15.5026L97.2095 15.971C98.0534 16.3591 98.3372 15.1672 97.8336 14.6925C97.0651 13.9691 95.1338 14.4853 94.9492 15.5968C93.1485 14.965 91.2824 16.7999 92.2393 18.582C92.7579 19.5478 93.8014 19.8681 94.855 19.7902C94.9844 19.7802 95.6499 19.6181 95.6951 19.6747C95.7177 19.7023 95.7089 19.8191 95.7629 19.8857C96.76 21.1039 99.2451 20.9456 100.376 19.9773C100.761 19.6495 101.072 19.1673 101.222 18.6913C102.173 18.6863 102.917 18.6021 103.693 18.0269C105.301 16.8338 105.086 14.1223 103.187 13.3575C102.75 13.1817 102.028 12.9795 101.665 13.3424C101.95 12.7823 101.919 12.3478 101.695 11.7776C100.95 9.87867 97.9717 9.40143 96.2024 9.80206C95.3849 9.98793 94.5423 10.5807 94.2837 11.4046C92.3486 11.5314 90.1937 11.8215 88.4909 10.6749C87.6672 10.1198 87.0142 8.54616 87.6998 7.70471C88.3214 6.94238 89.1163 7.49121 88.9254 8.3314H88.9242ZM118.674 12.2134C119.455 12.0803 120.264 12.2372 120.976 12.5788C121.595 12.8752 122.249 13.4843 122.925 13.6388C125.052 14.1274 128.206 12.717 128.795 10.5091C129.792 6.77535 124.086 5.75933 122.876 8.11037C122.162 9.49562 123.647 11.1358 125.091 10.695C125.464 10.5807 125.379 10.3597 125.4 10.3446C125.437 10.317 125.54 10.3383 125.608 10.2743C125.658 10.2266 125.662 10.1261 125.702 10.0658C125.731 10.0231 125.813 10.0193 125.815 10.0118C125.919 9.74931 125.416 9.32482 125.167 9.27081C125.093 10.0482 123.971 10.3986 123.555 9.62749C122.984 8.57128 123.65 7.7449 124.708 7.49623C127.252 6.89843 129.422 9.32356 127.458 11.554C126.32 12.8451 124.138 13.4341 122.503 12.869C121.768 12.6153 121.084 11.9622 120.321 11.8517C119.925 11.7939 119.505 11.8517 119.113 11.8994C119.076 11.7211 119.243 11.7801 119.329 11.647C119.701 11.0768 119.228 9.95026 118.769 9.51823C117.109 7.95464 114.18 8.23093 113.12 10.327C112.773 10.106 112.148 10.2466 111.772 10.3672C108.728 11.3481 109.442 15.8417 112.867 15.5289C113.296 15.49 113.738 15.3016 114.092 15.0605C113.916 14.9035 113.667 15.1346 113.621 14.9023C111.727 15.7424 109.813 13.7694 110.794 11.8969C111.348 10.8407 112.616 10.5091 113.715 10.8357C113.704 10.1336 114.524 9.47301 115.145 9.2884C117.115 8.70064 119.589 9.9176 118.674 12.2121V12.2134ZM125.076 12.7145C126.8 12.4106 128.813 10.5418 127.675 8.7132C126.981 7.5967 124.728 7.14584 123.821 8.17567C123.191 8.89028 123.842 10.1926 124.576 9.80457C124.73 9.72294 124.821 9.2997 124.894 9.1829C125.136 8.79483 125.932 9.26077 126.037 9.65763C126.152 10.0859 125.982 10.0997 125.955 10.3722C125.94 10.5242 126.024 10.7339 126.022 10.9311C126.019 11.3644 125.776 11.7663 125.619 12.1606L125.077 12.7145H125.076ZM38.0228 11.7123C38.176 10.5581 37.7453 9.684 36.6641 9.21681C35.652 8.77976 34.3837 8.73831 33.4457 9.36877C33.0664 9.62372 32.922 9.93644 32.7148 10.327C31.0824 9.96909 29.5956 11.1572 29.8078 12.8639C29.9886 14.3208 31.92 15.4988 33.251 14.749C31.871 13.8561 32.809 12.2485 34.1288 11.9295C36.2523 11.4159 38.0957 13.1063 37.896 15.2489C37.8182 16.0866 37.3171 16.7195 37.0183 17.4718C37.9337 17.8071 39.1618 17.4605 39.3753 16.4118C39.4117 16.2348 39.3652 15.814 39.4644 15.7475C42.0713 15.8605 42.1756 12.3 39.8562 11.6055C39.1944 11.4071 38.6482 11.397 38.0228 11.7123ZM83.7154 11.7123C83.8686 10.5581 83.4378 9.684 82.3567 9.21681C81.3445 8.77976 80.0762 8.73831 79.1382 9.36877C78.759 9.62372 78.6146 9.93644 78.4074 10.327C76.7749 9.96909 75.2881 11.1572 75.5003 12.8639C75.6812 14.3208 77.6125 15.4988 78.9436 14.749C77.5635 13.8561 78.5015 12.2485 79.8213 11.9295C81.9448 11.4159 83.7882 13.1063 83.5885 15.2489C83.5107 16.0866 83.0096 16.7195 82.7108 17.4718C83.6262 17.8071 84.8543 17.4605 85.0678 16.4118C85.1042 16.2348 85.0578 15.814 85.157 15.7475C87.7639 15.8605 87.8681 12.3 85.5487 11.6055C84.887 11.4071 84.3407 11.397 83.7154 11.7123ZM163.99 11.7123C164.143 10.5581 163.712 9.684 162.631 9.21681C161.619 8.77976 160.351 8.73831 159.412 9.36877C159.033 9.62372 158.889 9.93644 158.682 10.327C157.049 9.96909 155.562 11.1572 155.775 12.8639C155.955 14.3208 157.887 15.4988 159.218 14.749C157.838 13.8561 158.776 12.2485 160.096 11.9295C162.219 11.4159 164.062 13.1063 163.863 15.2489C163.785 16.0866 163.284 16.7195 162.985 17.4718C163.9 17.8071 165.129 17.4605 165.342 16.4118C165.378 16.2348 165.332 15.814 165.431 15.7475C168.038 15.8605 168.142 12.3 165.823 11.6055C165.161 11.4071 164.615 11.397 163.99 11.7123ZM26.8292 9.60488C26.4136 9.19169 25.4039 9.21053 24.8891 9.41148C24.6945 9.48809 24.1859 10.2454 23.9297 10.4589C22.6941 11.485 21.9632 11.058 20.6485 11.3192C18.9645 11.6545 19.3438 13.5497 20.926 13.7079C21.6907 13.7845 22.5321 13.468 23.3684 13.5258C24.6857 13.615 25.9514 14.4677 25.6501 15.9321C25.5358 16.4897 25.144 16.7271 25.6413 17.3312C26.4537 18.3195 29.1448 18.5582 30.3352 18.4765C32.0192 18.361 34.7981 17.3374 34.6939 15.2803C32.8706 16.9519 29.5127 15.8115 28.7932 13.527C27.6919 14.1738 25.9502 14.1475 25.09 13.1214C24.3717 12.2636 24.766 11.1321 25.8761 11.0228C26.2604 10.9851 26.573 11.1861 26.8932 10.8784C27.2135 10.5707 27.1343 9.90881 26.8279 9.60363L26.8292 9.60488ZM72.5217 9.60488C72.1061 9.19169 71.0965 9.21053 70.5816 9.41148C70.387 9.48809 69.8784 10.2454 69.6222 10.4589C68.3866 11.485 67.6557 11.058 66.341 11.3192C64.657 11.6545 65.0363 13.5497 66.6185 13.7079C67.3832 13.7845 68.2246 13.468 69.0609 13.5258C70.3782 13.615 71.644 14.4677 71.3426 15.9321C71.2283 16.4897 70.8365 16.7271 71.3338 17.3312C72.1463 18.3195 74.8373 18.5582 76.0277 18.4765C77.7117 18.361 80.4906 17.3374 80.3864 15.2803C78.5631 16.9519 75.2052 15.8115 74.4857 13.527C73.3844 14.1738 71.6427 14.1475 70.7825 13.1214C70.0642 12.2636 70.4585 11.1321 71.5686 11.0228C71.9529 10.9851 72.2655 11.1861 72.5858 10.8784C72.906 10.5707 72.8269 9.90881 72.5205 9.60363L72.5217 9.60488ZM152.796 9.60488C152.38 9.19169 151.371 9.21053 150.856 9.41148C150.661 9.48809 150.153 10.2454 149.896 10.4589C148.661 11.485 147.93 11.058 146.615 11.3192C144.931 11.6545 145.311 13.5497 146.893 13.7079C147.658 13.7845 148.499 13.468 149.335 13.5258C150.652 13.615 151.918 14.4677 151.617 15.9321C151.503 16.4897 151.111 16.7271 151.608 17.3312C152.421 18.3195 155.112 18.5582 156.302 18.4765C157.986 18.361 160.765 17.3374 160.661 15.2803C158.837 16.9519 155.48 15.8115 154.76 13.527C153.659 14.1738 151.917 14.1475 151.057 13.1214C150.339 12.2636 150.733 11.1321 151.843 11.0228C152.227 10.9851 152.54 11.1861 152.86 10.8784C153.18 10.5707 153.101 9.90881 152.795 9.60363L152.796 9.60488ZM118.485 12.4018C118.621 11.7927 118.818 11.49 118.622 10.8558C117.973 8.74459 113.967 8.7358 113.839 11.1496C111.922 10.0934 109.8 12.3716 111.178 14.15C111.71 14.8357 112.329 14.9738 113.175 14.8997C113.328 14.8859 113.555 14.7629 113.677 14.7767C113.707 14.7804 113.736 15.0278 113.841 14.906C113.877 14.8633 113.494 14.4087 113.45 14.263C113.181 13.3525 113.833 12.4583 114.706 12.2322C117.011 11.6382 118.941 13.2005 118.485 15.5955C118.892 15.4172 119.385 15.1961 119.832 15.1547C121.151 15.0316 122.053 15.8266 123.492 15.3632C124.134 15.1559 124.605 14.5217 124.382 13.8448C122.471 14.3999 121.241 12.4533 119.523 12.3377C119.17 12.3139 118.832 12.3716 118.485 12.4018ZM44.9043 10.3094C44.3179 10.7515 44.0541 11.1195 43.2555 11.2036C42.1542 11.3192 41.1233 11.024 40.5544 10.0319C39.919 10.0595 39.3703 9.98542 38.7763 9.77192L39.0525 10.592C39.5147 10.6988 40.0044 10.6598 40.4577 10.8181C41.0743 11.0341 41.731 11.5917 42.0927 12.1292C42.4543 12.6668 42.1768 12.9142 43.032 12.6705C44.1684 12.3452 45.119 11.4598 45.0525 10.2102C44.8955 10.16 44.9432 10.2806 44.9043 10.3094ZM109.572 13.404C109.228 13.5911 108.642 13.4643 108.254 13.3738C107.53 13.2055 106.998 12.8438 106.596 12.2109C106.194 11.5779 106.315 11.0379 106.434 10.3371C106.111 10.5832 105.716 10.7415 105.305 10.7754C105.531 11.5101 105.214 12.2372 104.671 12.7409C104.341 13.0486 104.213 12.987 103.877 13.1402C103.813 13.1704 103.78 13.1277 103.8 13.247C104.422 13.6451 104.641 14.3158 105.023 14.906C105.737 14.0909 107.265 14.2743 108.203 14.6147C109.365 15.0354 109.62 16.0527 110.582 16.6881C112.212 17.7644 114.951 17.8084 116.447 16.4746C117.36 15.6621 117.727 14.1286 116.51 13.4027C116.007 13.1026 114.797 12.987 114.609 13.7029C114.436 14.3585 115.631 14.268 115.265 14.7013C114.499 15.0894 113.686 15.7801 112.808 15.8492C111.256 15.9735 109.783 14.9789 109.574 13.4052L109.572 13.404ZM8.44018 11.3581C6.58044 9.63754 3.12088 10.7829 2.87476 13.3399C2.21549 13.1653 1.35155 13.5484 0.939665 14.0709C-0.67019 16.1154 1.11924 18.9199 3.62694 18.1613C4.10915 20.2511 6.67211 20.8175 8.52306 20.5412L8.21038 20.7284C9.8328 20.555 11.3372 19.804 12.0981 18.317C13.2597 18.5155 14.464 18.4351 15.343 17.5773C15.6293 17.2985 15.8151 16.8853 16.124 16.6341C17.165 15.7889 19.237 15.9635 20.3797 16.5098C21.3592 16.9783 21.6983 18.1588 20.8255 18.9136C21.3705 18.7001 21.7912 18.3522 21.8753 17.7393C22.1679 15.637 18.2588 15.3632 16.8825 15.7638C15.7624 16.0903 15.1948 17.2307 14.1274 17.6476C13.3878 17.9378 12.4008 18.0319 11.6624 17.7243C11.5582 18.4439 10.7872 19.0605 10.1744 19.4034C9.10196 20.0037 7.48457 20.0904 6.31297 19.7726C5.28075 19.4926 4.13426 18.8558 4.06645 17.6615C2.98526 18.0546 1.69311 17.7268 1.1883 16.6203C0.502669 15.117 1.7672 13.4643 3.37705 13.7795C3.36449 11.7512 5.75919 10.636 7.50089 11.3883C8.32089 11.7424 8.85332 12.6881 8.39875 13.5283L8.86337 13.5358C9.18609 12.7496 9.07936 11.9496 8.44018 11.3594V11.3581ZM54.1314 11.3581C52.2717 9.63754 48.8121 10.7829 48.566 13.3399C47.9068 13.1653 47.0428 13.5484 46.6309 14.0709C45.0211 16.1154 46.8105 18.9199 49.3182 18.1613C49.8004 20.2511 52.3634 20.8175 54.2143 20.5412L53.9016 20.7284C55.5241 20.555 57.0284 19.804 57.7894 18.317C58.951 18.5155 60.1552 18.4351 61.0342 17.5773C61.3205 17.2985 61.5064 16.8853 61.8153 16.6341C62.8563 15.7889 64.9283 15.9635 66.071 16.5098C67.0505 16.9783 67.3895 18.1588 66.5168 18.9136C67.0618 18.7001 67.4824 18.3522 67.5666 17.7393C67.8592 15.637 63.9501 15.3632 62.5738 15.7638C61.4536 16.0903 60.8861 17.2307 59.8187 17.6476C59.079 17.9378 58.092 18.0319 57.3537 17.7243C57.2494 18.4439 56.4784 19.0605 55.8656 19.4034C54.7932 20.0037 53.1758 20.0904 52.0042 19.7726C50.972 19.4926 49.8255 18.8558 49.7577 17.6615C48.6765 18.0546 47.3844 17.7268 46.8796 16.6203C46.1939 15.117 47.4585 13.4643 49.0683 13.7795C49.0558 11.7512 51.4504 10.636 53.1922 11.3883C54.0121 11.7424 54.5446 12.6881 54.09 13.5283L54.5546 13.5358C54.8774 12.7496 54.7706 11.9496 54.1314 11.3594V11.3581ZM134.406 11.3581C132.546 9.63754 129.09 10.7842 128.84 13.3399C128.181 13.1653 127.317 13.5484 126.905 14.0709C125.295 16.1154 127.085 18.9199 129.592 18.1613C130.075 20.2511 132.638 20.8175 134.489 20.5412L134.176 20.7284C135.798 20.555 137.303 19.804 138.064 18.317C139.225 18.5155 140.429 18.4351 141.309 17.5773C141.595 17.2985 141.781 16.8853 142.09 16.6341C143.131 15.7889 145.203 15.9635 146.345 16.5098C147.325 16.9783 147.664 18.1588 146.791 18.9136C147.336 18.7001 147.757 18.3522 147.841 17.7393C148.133 15.637 144.224 15.3632 142.848 15.7638C141.728 16.0903 141.16 17.2307 140.093 17.6476C139.353 17.9378 138.366 18.0319 137.628 17.7243C137.524 18.4439 136.753 19.0605 136.14 19.4034C135.067 20.0037 133.45 20.0904 132.279 19.7726C131.246 19.4926 130.1 18.8558 130.032 17.6615C128.951 18.0546 127.659 17.7268 127.154 16.6203C126.468 15.117 127.733 13.4643 129.343 13.7795C129.33 11.7512 131.725 10.636 133.466 11.3883C134.286 11.7424 134.819 12.6881 134.364 13.5283L134.829 13.5358C135.152 12.7496 135.045 11.9496 134.406 11.3594V11.3581ZM119.678 11.5239C119.994 11.549 120.498 11.549 120.789 11.6369C121.698 11.912 122.488 12.7697 123.541 12.9606C124.678 13.1666 125.421 12.1657 125.639 11.1823L125.516 11.1157C124.458 11.9823 123.066 12.1054 121.832 11.5352C121.045 11.171 121.025 10.9336 120.068 10.7277C119.925 10.6963 119.824 10.582 119.678 10.5832C119.753 10.8846 119.798 11.2262 119.678 11.5214V11.5239ZM26.1599 11.338C25.8271 11.1898 25.8259 11.3619 25.7355 11.3945C25.4152 11.5113 25.2671 11.4385 25.1264 11.8391C24.9418 12.3603 25.1754 12.8614 25.6011 13.1792C26.4261 13.7958 27.8865 13.8247 28.7053 13.1528L28.6701 12.6529C28.5006 12.609 28.5759 12.7409 28.4679 12.7974C27.8966 13.0938 26.8279 13.193 26.2892 12.8049C25.7895 12.4457 25.6903 11.7738 26.1599 11.338ZM71.8524 11.338C71.5196 11.1898 71.5184 11.3619 71.428 11.3945C71.1078 11.5113 70.9596 11.4385 70.8189 11.8391C70.6343 12.3603 70.8679 12.8614 71.2936 13.1792C72.1186 13.7958 73.579 13.8247 74.3978 13.1528L74.3626 12.6529C74.1931 12.609 74.2685 12.7409 74.1605 12.7974C73.5891 13.0938 72.5205 13.193 71.9818 12.8049C71.482 12.4457 71.3828 11.7738 71.8524 11.338ZM152.127 11.338C151.794 11.1898 151.793 11.3619 151.702 11.3945C151.382 11.5113 151.234 11.4385 151.093 11.8391C150.909 12.3603 151.142 12.8614 151.568 13.1792C152.393 13.7958 153.853 13.8247 154.672 13.1528L154.637 12.6529C154.467 12.609 154.543 12.7409 154.435 12.7974C153.863 13.0938 152.795 13.193 152.256 12.8049C151.756 12.4457 151.657 11.7738 152.127 11.338ZM113.401 18.3497H114.311C114.478 18.3497 115.432 18.0734 115.648 17.9918C116.79 17.5597 118.267 16.3114 118.285 14.999C118.31 13.095 116.592 12.0765 114.831 12.5437C113.293 12.9506 113.306 15.107 115.033 14.7804C115.054 14.4464 114.576 14.4401 114.453 14.1387C113.941 12.884 116.23 12.5952 117.041 13.5597C118.045 14.7503 117.237 16.2825 116.081 16.9845C114.441 17.9805 111.829 17.9051 110.296 16.7208C109.579 16.1669 109.139 15.2878 108.296 14.8947C107.831 14.6774 107.233 14.5318 106.718 14.5267C106.13 14.5217 105.472 14.6523 105.018 15.0316L105.146 15.4649C105.972 15.1045 107.037 15.0454 107.892 15.3607C108.966 15.7563 109.198 16.6542 110.017 17.3111C111.134 18.209 113.341 18.6172 114.75 18.5871C115.686 18.567 116.678 18.1186 117.437 17.5874C118.347 16.9494 118.685 15.9107 119.96 15.7826C120.861 15.6922 121.454 16.1707 122.299 16.2662C123.61 16.4131 125.491 15.6432 125.256 14.0671C125.171 13.4969 124.93 13.8146 124.509 13.7795L124.64 13.9302C124.757 15.5227 123.124 15.8366 121.86 15.6382C120.989 15.5026 120.551 15.1534 119.613 15.3745C118.097 15.7311 117.982 16.8539 116.873 17.5874C116.361 17.9265 115.273 18.3811 114.669 18.4552C114.375 18.4903 113.94 18.425 113.619 18.4125C113.543 18.41 113.387 18.459 113.401 18.3497Z" fill="#AB7820"/>
</svg>
