<svg width="39" height="21" viewBox="0 0 39 21" fill="none" xmlns="http://www.w3.org/2000/svg">
<g clip-path="url(#clip0_6150_137)">
<path d="M23.869 0.0453247C21.6547 -0.180725 19.5164 0.474819 17.7471 1.83112C17.5192 2.01196 15.9887 3.43607 15.9887 3.583C15.9996 4.01249 16.9656 2.76922 17.0525 2.6901C21.7524 -1.48051 28.1674 -0.169422 30.2732 5.99043C36.1563 3.93338 41.095 10.9635 37.5239 16.2644C35.7004 18.9883 32.7805 19.836 29.7847 18.7396C29.6002 18.6718 28.8729 18.1632 28.8187 18.1632C28.7644 18.1632 28.1783 18.7961 28.0589 18.8753C25.812 20.3898 22.6316 20.0733 20.9058 17.8693C18.4093 22.0739 12.0811 21.7348 10.377 16.9425C9.00932 17.7902 7.14235 17.8354 5.76384 16.9425C5.45992 16.7504 4.63498 15.7558 4.52643 15.7219C4.24422 15.6427 3.62551 15.7784 3.28903 15.7219C1.60659 15.428 0.890198 14.8177 0.0869713 13.2466C1.66087 14.0265 3.14792 12.8058 4.14653 11.5965C4.99318 10.5679 5.47077 9.26815 6.52365 8.40916C8.66197 6.65727 12.3199 6.83811 13.3294 9.76546C12.7867 6.74769 9.17213 6.48774 7.00125 7.83273C4.56985 9.33596 3.63637 14.3204 -0.0107193 13.1336C0.564568 14.7385 1.51976 15.5749 3.15878 15.8575C3.51697 15.914 4.15738 15.7671 4.46131 15.8575C4.62412 15.9027 5.13428 16.6148 5.35137 16.7843C6.78416 17.8693 8.66197 18.0841 10.2359 17.146C12.1028 21.9043 18.203 22.2208 20.9709 18.2197C22.7402 20.3898 25.8771 20.5028 28.124 19.0787C28.2434 18.9996 28.7644 18.4345 28.8078 18.4345C28.8838 18.4345 29.9367 19.0674 30.1863 19.1465C32.8565 20.0168 35.6135 19.0109 37.372 16.8182C41.692 11.4382 36.6339 3.80905 30.3166 5.60614C29.5785 2.80313 26.6586 0.327887 23.869 0.0453247Z" fill="#AB7820"/>
<path d="M16.1624 4.55497C14.9033 4.41934 13.1774 5.00707 12.3416 6.02429C11.8966 6.56681 11.5058 7.14323 12.3091 7.49361C13.4596 4.37413 18.9628 4.63408 18.431 8.49953C19.2776 6.73634 17.9751 4.75841 16.1624 4.55497Z" fill="#AB7820"/>
<path d="M16.303 4.05761C14.3818 3.83156 12.1458 4.9392 11.4511 6.88323C13.0684 3.48118 18.7778 2.99518 18.9841 7.56138C19.3748 5.8547 17.8769 4.23845 16.303 4.04631V4.05761Z" fill="#AB7820"/>
<path d="M8.73781 7.62915C10.5614 7.30138 12.9493 8.04734 13.0036 10.2852C12.4175 8.11515 9.84496 7.8778 8.1191 8.56725C5.70942 9.52796 5.06901 12.8057 2.68103 14.0037C2.52907 14.0829 1.47619 14.3315 1.58473 14.4332C2.7353 15.0775 4.09211 15.2131 5.23182 14.4332C5.95907 17.5301 9.63872 17.0102 10.9413 14.648C11.0281 20.8078 19.3643 21.4408 20.8405 15.733C21.9259 17.6884 23.2068 19.1351 25.5947 18.8073C29.2853 18.31 30.2187 12.4666 26.7562 11.9354C25.5839 11.7432 25.9312 11.9806 25.6273 12.6135C24.3791 15.134 22.1213 15.8347 19.6031 14.7949C19.6248 17.6431 16.7267 18.9429 14.5883 17.3041C12.2546 15.5296 13.6549 11.6415 16.4445 12.071C18.0184 12.3197 18.8541 14.7723 17.2694 15.6539C18.6696 13.3708 15.0985 11.585 14.2736 14.049C12.9927 17.9031 20.0047 18.7169 18.8107 13.902C18.116 11.0425 14.7512 10.387 13.0036 12.6474C12.0918 11.2007 10.811 9.92355 9.00917 10.1383C8.16252 10.24 6.84913 11.1781 6.70803 12.1049C6.30641 14.7723 9.96436 15.2583 9.29138 12.3649C9.91008 12.9526 9.74727 14.0263 9.08515 14.5124C6.92512 16.0721 4.62397 12.1953 7.29417 10.1383C9.19369 8.66897 11.853 9.50536 13.0687 11.5059C14.6752 10.0705 17.2043 10.2174 18.5394 11.9693C19.1581 12.7831 19.1255 13.8568 20.0156 14.2185C24.4225 16.0156 26.5934 9.96876 23.5324 8.27339C20.3086 6.4989 18.5285 12.6135 22.4578 11.9693C19.6899 13.7438 18.4308 9.41494 20.6343 7.70826C23.044 5.84336 25.9312 8.3186 25.9312 11.0764C29.904 10.8956 29.8823 5.78684 27.516 3.40202C24.9978 0.858964 21.0902 1.05111 18.3657 3.11946C17.7253 3.60547 17.4865 4.49836 16.6833 3.66198C18.5068 1.51451 21.0902 0.327748 23.8689 0.61031C26.7236 0.915477 29.3721 3.52635 29.9908 6.41978C36.4926 3.7637 41.5291 12.5457 36.1887 17.3041C34.0069 19.2481 31.1739 19.3724 28.7534 17.8014C26.6802 20.3331 22.6532 20.1636 20.9165 17.3041C18.6588 21.9155 11.9399 21.5312 10.4528 16.4451C9.26967 17.6657 7.01195 17.5414 5.70942 16.592C5.37293 16.3434 4.81936 15.4731 4.74337 15.4392C4.63483 15.3939 3.73391 15.5522 3.44085 15.5183C2.32284 15.3826 1.31337 14.9532 0.727234 13.902C4.71081 13.8568 5.03644 8.3073 8.73781 7.62915ZM37.2524 10.5339C36.6988 8.66897 34.7342 6.82667 32.813 6.70234C32.3245 6.66844 30.425 6.98491 30.1319 7.34659C29.9691 7.55003 29.9908 8.40902 29.8931 8.74809C29.5566 9.85573 28.9379 10.8391 27.961 11.4607C28.7642 11.9015 29.3287 13.4951 30.1319 13.6534C32.3679 14.0829 33.6053 11.8563 32.5742 9.88964C34.9187 11.845 32.5524 15.1792 29.9257 14.3654C29.9148 15.3035 29.8497 16.2416 29.3395 17.0554C33.703 20.0167 38.7503 15.6087 37.2524 10.5339Z" fill="#AB7820"/>
</g>
<defs>
<clipPath id="clip0_6150_137">
<rect width="39" height="21" fill="white" transform="matrix(-1 0 0 1 39 0)"/>
</clipPath>
</defs>
</svg>
