<svg width="50" height="50" viewBox="0 0 50 50" fill="none" xmlns="http://www.w3.org/2000/svg">
<g clip-path="url(#clip0_6150_61)">
<path d="M34.7661 47.4001C34.8358 47.3347 34.344 46.6078 34.9249 46.1828C35.5638 45.7136 36.4525 46.1405 36.7294 46.8194C37.2987 48.2116 36.1234 49.75 34.7216 49.9923L15.4275 50.0019C13.8979 49.9462 12.5426 47.8905 13.4546 46.5636C14.1922 45.4925 15.8341 46.0502 15.2533 47.3309C16.384 47.6386 16.7035 46.3386 15.96 45.6117C15.2862 44.954 13.0267 44.8713 12.0005 44.6291C7.5705 43.5791 4.68946 40.6792 3.23538 36.4486C2.96432 36.5371 2.80555 36.7851 2.52867 36.9043C-0.454984 38.2062 -1.18686 32.2584 2.46091 32.8276C5.6014 33.3179 5.84729 36.9082 7.34784 38.9985C9.21625 41.6022 12.4865 42.4099 15.536 41.608C19.0037 40.6965 21.4374 37.3466 25.2595 37.4986C28.4213 37.6236 30.7272 40.2158 33.5444 41.2753C36.6675 42.4484 40.292 42.0484 42.4276 39.3196C44.1063 37.1736 44.4257 32.9237 47.876 32.793C50.2072 32.7045 50.7222 36.0755 48.9022 36.9043C48.0174 37.3063 47.6417 36.9909 46.9583 36.5178C46.8905 36.4697 46.8847 36.3986 46.7782 36.4813C46.6833 36.5544 45.9747 38.3466 45.8024 38.6716C44.0288 42.0311 41.3201 43.906 37.6026 44.7117C36.7101 44.906 34.9501 44.9906 34.2705 45.4752C33.3585 46.1251 33.5405 47.4828 34.7603 47.4001H34.7661Z" fill="#AB7820"/>
<path d="M47.8445 31.672C46.9984 31.6181 46.0458 32.0008 45.3468 32.4566C42.0243 34.62 43.188 39.3121 38.5431 40.4428C32.3976 41.9408 29.5592 34.72 23.0168 36.3949C18.7921 37.4775 16.0272 41.9947 11.0493 40.3082C6.75094 38.8525 8.02301 34.27 4.37137 32.2662C3.55042 31.8162 3.16125 31.8162 2.28416 31.6701C2.20478 31.6566 2.14476 31.6412 2.11378 31.5585C1.99954 31.0893 3.45942 29.4567 3.76728 29.0144C6.51859 30.9374 10.2361 31.5239 13.5334 31.9412C20.6973 32.8469 28.7634 32.8662 35.9331 32.0201C39.3776 31.6124 43.3177 31.0336 46.1852 29.0144C46.4562 29.349 48.1698 31.3393 47.8464 31.6701L47.8445 31.672Z" fill="#AB7820"/>
<path d="M24.9396 0.00769542C25.0635 -0.0788397 25.4508 0.590365 25.534 0.71536C27.356 3.49025 29.1682 6.78436 30.7482 9.71886C33.1142 14.1091 35.8984 18.8358 33.0096 23.7145C29.2302 30.0988 19.6519 29.6066 16.585 22.8722C14.8695 19.1089 16.1513 15.9898 17.8087 12.5495C19.8959 8.21699 22.4942 4.14023 24.9396 0.00769542ZM25.079 9.76694C25.0326 9.7304 24.9493 9.88808 24.9241 9.92847C23.2745 12.5553 19.7139 18.5743 19.5628 21.5242C19.3034 26.574 26.0258 28.9124 29.2496 25.0356C31.1877 22.703 30.4093 20.1588 29.3348 17.6532C28.1672 14.9302 26.4247 12.4034 25.081 9.76694H25.079Z" fill="#AB7820"/>
</g>
<defs>
<clipPath id="clip0_6150_61">
<rect width="50" height="50" fill="white"/>
</clipPath>
</defs>
</svg>
